<svg width="175" height="72" viewBox="0 0 175 72" fill="none" xmlns="http://www.w3.org/2000/svg">
<rect width="174.704" height="72" fill="#E7EDF4"/>
<path d="M152.094 16.629C152.084 16.6189 151.683 16.3398 150.891 15.7715C150.303 17.2988 149.983 18.1716 149.927 18.3999C149.892 18.5369 149.927 18.7145 150.024 18.9327C150.12 19.1357 150.232 19.2981 150.369 19.4097C150.668 19.6533 151.094 19.6634 151.668 19.4249C152.231 19.2017 152.632 18.8617 152.875 18.4152C153.271 17.72 153.002 17.1212 152.094 16.629ZM150.871 17.2024L152.52 17.7606C152.256 18.2629 151.982 18.5877 151.698 18.7298C151.419 18.8668 151.028 18.8769 150.557 18.7551C150.612 18.3086 150.658 17.9737 150.699 17.7555C150.709 17.72 150.765 17.5322 150.871 17.2024Z" fill="#5C4D4D"/>
<path d="M134.263 10.1847C133.675 9.8498 133.142 9.97158 132.685 10.5399C132.178 11.2148 131.782 11.7526 131.482 12.1484L130.265 10.3674L130.046 10.4638C130.183 11.2249 130.249 11.6461 130.249 11.7171C130.26 12.1484 130.183 12.4224 130.026 12.5442C129.935 12.6 129.808 12.6153 129.62 12.5899C129.443 12.5696 129.301 12.5188 129.194 12.4478C128.727 12.1332 128.286 12.118 127.854 12.4123C127.291 12.8132 127.098 13.3307 127.271 13.9701C127.702 13.6301 127.92 13.4576 127.931 13.4525C128.372 13.28 128.656 13.2546 128.758 13.3612C129.001 13.6301 129.25 13.7316 129.519 13.691C129.676 13.6707 129.92 13.554 130.239 13.351C130.386 13.2648 130.63 13.1278 130.965 12.9552L131.29 13.8128C132.056 13.4576 132.467 13.2648 132.523 13.2292C133.406 12.7066 134.015 12.3007 134.334 12.0013C134.563 11.7983 134.664 11.4786 134.639 11.0321C134.618 10.5957 134.497 10.3116 134.263 10.1847ZM132.416 12.0165L133.538 10.8038C133.675 11.2909 133.73 11.5395 133.72 11.5497C133.664 11.5953 133.289 11.8541 132.594 12.3362L132.416 12.0165Z" fill="#5C4D4D"/>
<path d="M133.02 18.5366C132.741 17.9632 132.071 16.7657 131.016 14.9644C130.676 15.2536 130.427 15.7052 130.265 16.3141C130.112 16.8875 130.087 17.3543 130.204 17.7298C130.452 18.5315 130.615 19.2318 130.701 19.8407C130.823 20.6881 130.965 21.977 131.137 23.6921C131.787 28.1168 132.787 34.7387 134.116 43.578C134.141 43.781 134.253 44.9481 134.446 47.0894L134.705 47.1807C134.933 46.7342 135.045 46.5008 135.045 46.4856C135.527 43.6288 135.562 40.9445 135.146 38.4429C133.781 30.2886 132.898 25.0063 132.507 22.5909C132.497 22.525 132.492 22.0074 132.492 21.0382L134.233 22.4996L134.446 22.3474C134.182 21.1651 133.705 19.8965 133.02 18.5366Z" fill="#5C4D4D"/>
<path d="M141.093 22.4446L141.677 22.7034C141.748 22.0336 141.773 21.653 141.758 21.5617C141.732 21.4653 141.651 21.3688 141.504 21.2623C141.362 21.1608 141.23 21.105 141.129 21.105C140.779 21.105 140.403 21.2877 140.007 21.653C139.611 22.0183 139.388 22.3786 139.332 22.7338C139.277 23.0433 139.312 23.2362 139.434 23.3174C140.073 23.7487 140.307 24.3373 140.129 25.073C140.53 24.8143 141.134 24.4489 141.951 23.9821C142.641 23.5457 143.174 23.0941 143.554 22.6171C143.341 22.5968 143.006 22.6475 142.544 22.7592C141.682 22.9723 141.113 23.0941 140.839 23.1144C140.642 23.1398 140.428 23.0129 140.185 22.7287C140.271 22.3786 140.337 22.201 140.368 22.2112C140.489 22.2162 140.733 22.2974 141.093 22.4446Z" fill="#5C4D4D"/>
<path d="M143.229 28.493C142.991 28.7619 142.798 29.1729 142.641 29.7159C142.6 29.8681 142.402 30.751 142.037 32.3443C140.997 31.0758 140.408 30.3704 140.271 30.2436C139.896 29.8782 139.363 29.589 138.693 29.3708C138.556 29.3302 138.373 29.3505 138.13 29.4418C137.886 29.523 137.759 29.6042 137.749 29.6854C137.693 30.2588 137.79 30.68 138.033 30.9387C138.17 31.0758 138.373 31.1874 138.647 31.2787C138.926 31.365 139.129 31.365 139.236 31.2838C139.566 31.0605 139.845 31.0199 140.073 31.1569C140.175 31.228 140.337 31.4259 140.545 31.7456C140.586 31.8115 140.951 32.4661 141.636 33.7194L142.214 34.7901C142.336 33.9224 142.417 33.415 142.443 33.2678C142.813 31.3345 143.047 30.2081 143.133 29.8782C143.255 29.4418 143.417 29.1831 143.61 29.112C143.787 29.0359 144.087 29.1019 144.493 29.2947C144.681 29.386 144.802 29.4013 144.843 29.3454C145 29.1729 145.051 29.0359 144.98 28.9344C144.635 28.3915 144.381 28.0972 144.239 28.0566C144.102 28.016 143.93 28.0515 143.711 28.1479C143.513 28.2342 143.351 28.356 143.229 28.493Z" fill="#5C4D4D"/>
<path d="M155.616 22.3223C155.56 22.0889 155.484 21.9366 155.387 21.8453C155.276 21.7387 155.098 21.6779 154.849 21.6423C154.601 21.6119 154.428 21.6373 154.342 21.7185C153.764 22.2259 153.352 22.7536 153.119 23.3118C152.997 23.5908 152.886 23.9714 152.779 24.4433C152.723 24.7072 152.632 25.1385 152.51 25.7271C152.003 24.5955 151.708 23.9562 151.627 23.804C151.15 22.9058 150.506 22.4441 149.699 22.4035C149.547 22.3984 149.369 22.4441 149.166 22.5506C148.958 22.6572 148.836 22.7688 148.796 22.8906C148.684 23.2509 148.857 23.6416 149.298 24.0526C149.74 24.4687 150.135 24.5955 150.465 24.4332C150.765 24.2911 150.998 24.2708 151.15 24.3926C151.242 24.4687 151.343 24.6514 151.45 24.9355C151.597 25.3161 151.927 26.2244 152.449 27.6604C152.657 27.3001 152.825 26.8384 152.947 26.2802C153.068 25.6256 153.16 25.1283 153.221 24.8087C153.469 23.6162 153.987 22.7739 154.778 22.2766L155.372 23.0986L155.742 22.921C155.687 22.6572 155.646 22.4593 155.616 22.3223Z" fill="#5C4D4D"/>
<path d="M154.819 30.2687C154.053 30.2332 153.053 30.3245 151.805 30.5275C151.003 30.6544 150.425 30.903 150.069 31.2836C149.724 31.6591 149.476 32.2883 149.308 33.1864L152.926 32.8464L152.997 33.1458C152.312 33.704 151.891 34.0541 151.724 34.2063C151.556 34.3586 151.145 34.7544 150.491 35.3937L150.638 35.5967C151.287 35.5307 152.175 35.1451 153.276 34.4398C154.251 33.8156 155.017 32.8718 155.565 31.5931C155.93 30.7457 155.681 30.2992 154.819 30.2687Z" fill="#5C4D4D"/>
<path d="M161.644 30.9637C160.827 30.1518 160.218 29.5379 159.797 29.1167C159.239 30.1772 159.102 31.0906 159.401 31.8517C159.919 33.1558 160.741 35.0789 161.877 37.6364C162.446 38.9962 162.922 40.2242 163.303 41.3152C163.344 41.4116 163.323 41.5486 163.252 41.7262C163.181 41.9038 163.11 42.0053 163.034 42.0256C161.989 42.2844 160.979 42.122 160.02 41.5334C159.183 41.0412 158.828 40.3714 158.965 39.529C158.62 39.7726 158.371 40.0314 158.219 40.2953C157.833 41.1934 157.498 41.8328 157.219 42.2133C156.62 43.0151 155.722 43.1571 154.504 42.6497C153.906 42.4011 153.561 42.1879 153.464 42.0205C153.368 41.848 153.342 41.4116 153.393 40.7113L153.332 39.9147C152.667 40.6505 152.327 41.0412 152.302 41.0665C151.866 41.6399 151.536 42.0611 151.323 42.3402C150.927 42.8527 150.562 43.2332 150.232 43.492C149.329 44.2024 148.364 44.4206 147.329 44.1466C146.309 43.8777 145.543 43.218 145.051 42.1626C144.833 41.5587 144.65 41.1071 144.513 40.8128C144.067 39.9096 143.61 39.3819 143.133 39.2449C142.62 39.0927 141.885 39.3007 140.936 39.8893C140.743 40.0111 140.596 40.1329 140.51 40.2547C139.256 41.8987 138.526 42.8831 138.317 43.2332C138.003 43.7762 137.769 44.3141 137.622 44.8722H139.251C139.885 44.0654 140.636 43.2992 141.484 42.5787C142.149 42.0053 142.717 42.1727 143.158 43.081C143.6 43.9538 143.909 44.5525 144.092 44.8722H151.48C151.49 44.8519 151.505 44.8316 151.516 44.8113C151.536 44.7707 151.658 44.5982 151.886 44.2836C152.104 44.4358 152.368 44.6388 152.683 44.8722H157.326C157.579 44.4967 157.792 44.0096 157.95 43.4261C158.006 43.355 158.041 43.3043 158.046 43.2992C158.675 43.6443 159.594 44.1568 160.801 44.8266C160.837 44.8418 160.867 44.857 160.893 44.8722H162.877C162.994 44.8164 163.125 44.7555 163.252 44.6794C163.633 44.4714 163.937 44.1568 164.181 43.7356C164.267 43.5732 164.445 43.1774 164.704 42.5381V39.9502L162.055 33.648C161.989 33.3486 161.933 33.1051 161.892 32.9122L163.146 33.1456C162.811 32.4099 162.309 31.6792 161.644 30.9637Z" fill="#5C4D4D"/>
<path d="M139.251 44.8726H137.622C137.379 45.7656 137.364 46.6688 137.567 47.5924C137.638 47.907 137.622 48.1404 137.526 48.3027C137.435 48.4398 137.242 48.5717 136.937 48.6985C135.222 49.4445 133.852 50.1396 132.842 50.7942C131.442 51.6923 130.3 52.7275 129.417 53.8996C128.768 54.7673 127.794 55.8025 126.489 57.0101C125.713 57.7256 124.921 58.2787 124.12 58.6593C123.384 59.0043 122.669 58.9993 121.958 58.6187C121.248 58.2381 120.857 57.6444 120.781 56.8528C120.679 55.7619 120.776 54.7115 121.09 53.6916C121.481 52.4078 122.369 50.8449 123.749 49.0182C124.201 48.4195 124.653 47.9881 125.109 47.7294C125.632 47.4401 126.246 47.3183 126.956 47.3589C127.976 47.4249 128.824 47.1407 129.509 46.5115C129.986 46.0701 130.305 45.5322 130.493 44.8726H122.968C123.039 45.0096 123.11 45.1669 123.201 45.3343C123.42 45.7504 123.643 46.0802 123.861 46.3136C124.125 46.608 124.257 46.8667 124.236 47.09C124.221 47.2676 124.094 47.5213 123.846 47.8461C122.45 49.6576 121.507 51.0225 121.035 51.9511C120.314 53.3516 119.954 54.6202 119.939 55.7771C119.913 57.3501 120.329 58.5679 121.177 59.4407C122.039 60.3338 123.222 60.7194 124.729 60.6078C126.155 60.5012 127.454 59.8061 128.621 58.5223C131.163 55.7314 133.304 53.7728 135.034 52.6615C136.953 51.4285 138.871 51.1088 140.779 51.7177C141.377 51.9055 142.28 52.1541 143.498 52.4788C144.036 52.6564 144.366 52.4433 144.478 51.8395C144.762 50.3933 144.214 49.3582 142.834 48.7391C141.215 48.0034 140.088 47.4553 139.444 47.0849C138.571 46.5826 138.429 45.9534 139.003 45.1922C139.079 45.0857 139.16 44.9791 139.251 44.8726Z" fill="#5C4D4D"/>
<path d="M157.326 44.8726H152.683C152.946 45.0755 153.256 45.3039 153.601 45.5525C153.916 45.7707 154.139 45.8874 154.286 45.9128C155.301 46.0498 156.098 45.928 156.676 45.5322C156.92 45.3597 157.138 45.1415 157.326 44.8726Z" fill="#5C4D4D"/>
<path d="M162.877 44.8726H160.893C161.512 45.1669 162.171 45.1669 162.877 44.8726Z" fill="#5C4D4D"/>
<path d="M151.48 44.8726H144.092C144.143 44.9537 144.183 45.0197 144.214 45.0705C145.173 46.5166 146.406 47.2118 147.928 47.156C149.435 47.1002 150.617 46.339 151.48 44.8726Z" fill="#5C4D4D"/>
<path d="M120.212 32.1408L119.984 32.2372L119.862 32.7497C119.847 33.9219 119.857 34.754 119.888 35.2412C119.954 36.1647 120.111 36.9816 120.37 37.692C120.629 38.4024 120.933 39.6355 121.283 41.3709C121.435 42.066 121.435 42.5684 121.283 42.8678C120.892 43.6593 120.446 44.3342 119.928 44.8721H121.765C121.846 44.6082 121.917 44.3241 121.983 44.0348C121.988 43.9841 122.07 43.7659 122.217 43.3701C122.45 43.8877 122.597 44.1769 122.633 44.253C122.724 44.4053 122.831 44.6133 122.968 44.8721H130.493C130.564 44.5981 130.62 44.3088 130.645 43.9993C130.691 43.3955 130.67 42.746 130.574 42.0762C130.346 40.29 129.539 38.0472 128.149 35.3528L127.656 34.3836L128.661 34.5612C128.702 33.9371 128.402 33.2166 127.768 32.4097C127.129 31.5928 126.423 31.0245 125.642 30.7251C125.642 31.0651 125.617 31.5674 125.576 32.222C125.551 32.8055 125.586 33.2774 125.682 33.6377C125.835 34.2213 126.073 34.9012 126.388 35.6877C126.576 36.1292 126.855 36.804 127.235 37.6819C127.687 38.7982 128.372 40.4676 129.28 42.6902C129.341 42.8424 129.356 43.0301 129.321 43.2585C129.28 43.4919 129.219 43.6543 129.113 43.7253C128.235 44.3951 127.245 44.6082 126.139 44.3647C125.038 44.1211 124.221 43.5173 123.714 42.5379C123.455 42.0356 123.145 41.1527 122.78 39.8841C122.024 37.0425 121.435 34.9266 121.024 33.5159C120.969 33.318 120.847 33.0795 120.659 32.8157C120.451 32.5163 120.299 32.2981 120.212 32.1408Z" fill="#5C4D4D"/>
<path d="M113.21 36.3168C113.215 36.2864 113.159 36.0073 113.053 35.4897C112.845 35.5253 112.682 35.5456 112.581 35.5709C112.393 35.6065 112.256 35.6521 112.17 35.7282C111.718 36.1139 111.429 36.4843 111.292 36.8496C110.749 38.2501 110.242 39.7217 109.77 41.2592C109.678 41.5636 109.455 42.4009 109.1 43.7506C108.993 44.1566 108.887 44.527 108.785 44.872H109.947C110.419 42.7053 110.79 41.0714 111.038 39.9652C111.048 39.9246 111.201 39.5999 111.49 38.9758L111.683 39.0569L111.444 41.2186C111.353 42.7307 111.363 43.847 111.459 44.5828C111.47 44.6792 111.485 44.7756 111.51 44.872H113.022C112.789 44.461 112.637 43.984 112.545 43.4411C112.434 42.7611 112.444 41.8478 112.566 40.7111C112.86 38.7576 113.073 37.2962 113.21 36.3168Z" fill="#5C4D4D"/>
<path d="M104.071 44.8723H104.878C104.822 44.6897 104.782 44.5121 104.756 44.3345C104.731 44.1569 104.594 42.5788 104.345 39.6104C104.254 39.8996 104.137 40.3055 103.98 40.8129C103.701 42.0206 103.731 43.3805 104.071 44.8723Z" fill="#5C4D4D"/>
<path d="M104.878 44.8726H104.071C104.152 45.2531 104.254 45.6489 104.386 46.0549C104.7 47.0494 105.289 47.9323 106.152 48.6935C106.593 49.074 107.045 49.2415 107.501 49.1857C107.968 49.1298 108.344 48.8558 108.623 48.3636C109.14 47.43 109.551 46.3948 109.866 45.2379C109.886 45.1161 109.922 44.9943 109.947 44.8726H108.785C108.633 45.3901 108.486 45.8367 108.344 46.2071C108.085 46.8718 107.674 47.227 107.101 47.2777C106.537 47.3234 106.045 47.0494 105.634 46.4608C105.279 45.9432 105.03 45.4155 104.878 44.8726Z" fill="#5C4D4D"/>
<path d="M113.022 44.8726H111.51C111.683 45.9686 112.089 46.9073 112.718 47.6989C113.312 48.4499 114.007 48.9523 114.803 49.2161C115.61 49.4952 116.437 49.485 117.3 49.2009C119.583 48.4499 121.07 47.0037 121.765 44.8726H119.928C119.254 45.5779 118.462 46.065 117.559 46.3492C116.295 46.745 115.199 46.6688 114.266 46.131C113.733 45.8214 113.322 45.4003 113.022 44.8726Z" fill="#5C4D4D"/>
<path d="M94.0296 18.6129L93.9028 18.3592C92.6545 18.6281 91.1069 19.0797 89.2598 19.7038C86.403 20.6629 84.8554 21.1804 84.622 21.2566C84.5966 20.3026 84.9112 19.4501 85.5709 18.7093C86.5705 17.5727 87.3012 16.6847 87.768 16.0301C87.971 15.7409 87.9811 15.3501 87.7883 14.863C87.7224 14.7108 87.3925 14.6702 86.8039 14.7615C86.7785 14.7666 86.5198 14.8884 86.0123 15.1319C83.4854 16.3751 81.9631 17.1211 81.4557 17.3545C81.3897 17.39 80.9635 17.5118 80.1668 17.7198C80.3089 15.9793 79.7761 14.2744 78.5786 12.5999C78.3654 12.3005 78.1878 12.1077 78.0458 12.0164C77.7971 11.8489 77.4825 11.8083 77.102 11.8946C77.2237 12.1331 77.376 12.4325 77.5637 12.8029C77.6043 12.8587 77.8682 13.224 78.3604 13.8786C78.68 14.3048 78.9135 14.6803 79.0505 14.9949C79.2534 15.4415 79.4209 16.2381 79.5782 17.3951C79.634 17.9076 79.3904 18.1511 78.8424 18.1105C77.9494 18.1105 77.2694 18.1004 76.8279 18.0902C75.9197 18.0699 75.2549 17.6792 74.8287 16.9435L73.9864 15.6343L73.7885 15.7053C73.9458 16.8064 74.0168 17.4052 74.0168 17.4965C74.0219 17.6488 73.9914 17.8365 73.9255 18.0547C73.895 18.1714 73.8494 18.3592 73.7733 18.6027L72.8802 18.2628C72.7686 18.1511 72.6772 18.0902 72.6214 18.0852C72.3728 18.0446 72.1799 18.0141 72.048 18.004C71.8349 17.9786 71.6979 17.9938 71.637 18.0598C71.5101 18.212 71.2209 18.7499 70.7592 19.648L71.0027 19.7901C71.3833 19.4451 71.6471 19.2573 71.8146 19.2269C71.9364 19.2015 72.2764 19.2472 72.8345 19.3639C73.0324 19.4045 73.3014 19.3892 73.616 19.3131C73.7986 19.2725 74.0625 19.2116 74.4278 19.1203C74.4684 19.1102 74.6308 19.0645 74.92 18.9681C75.1129 18.892 75.2651 18.8767 75.3767 18.9021C78.1574 19.5719 80.9787 19.0543 83.8406 17.3494C84.4748 16.9688 85.3222 16.4969 86.3777 15.9438C86.4183 15.9185 86.6568 15.8677 87.0881 15.7815C87.0627 16.0707 86.9815 16.2787 86.8547 16.4157C85.307 18.1105 84.348 19.5821 83.9826 20.8405C83.8761 21.2058 83.5665 21.5001 83.049 21.7183C80.9939 22.4541 79.4716 23.0528 78.4822 23.5044C76.7823 24.2808 74.9759 25.2094 73.0476 26.3004C72.525 26.5947 72.0429 27.0767 71.5812 27.7567C71.3072 28.1626 71.2361 28.5432 71.3731 28.9085C71.5 29.2637 71.7994 29.5225 72.2662 29.6747C72.799 29.8523 73.347 29.969 73.9103 30.0096C74.0168 30.0147 74.1386 29.969 74.2908 29.8777C74.3771 29.827 74.509 29.7559 74.6765 29.6494C74.5547 29.5124 74.4583 29.4109 74.4025 29.3449C74.2959 29.2231 74.1944 29.147 74.1031 29.1267C73.9103 29.0709 73.1643 28.9237 71.8501 28.6802C71.9719 28.528 72.1292 28.3098 72.3169 28.0357C72.4793 27.8176 72.6214 27.6552 72.7584 27.5588C73.4282 27.0767 74.0879 26.6759 74.7475 26.3511C78.7054 24.433 83.734 22.4947 89.8231 20.5259C90.6248 20.2671 91.7767 19.8256 93.2736 19.1913C93.3243 19.171 93.573 18.9732 94.0296 18.6129Z" fill="#5C4D4D"/>
<path d="M103.442 13.2799C103.564 13.3357 103.635 13.6047 103.676 14.0817C104.69 13.6199 105.249 13.3611 105.35 13.3053C105.974 12.9298 106.456 12.5594 106.796 12.1788C107.02 11.9302 107.116 11.6054 107.091 11.2249C107.07 10.8595 106.948 10.5855 106.73 10.4079C106.223 10.002 105.7 10.144 105.142 10.8291C105.056 10.9356 104.619 11.5496 103.838 12.6659L102.554 10.9356L102.356 10.9914C102.443 11.712 102.493 12.1078 102.514 12.189C102.635 12.6964 102.458 12.874 101.991 12.737C101.306 12.534 100.849 12.5036 100.621 12.6406C100.387 12.7877 100.185 13.2393 100.002 13.9903C100.382 13.7874 100.606 13.6757 100.661 13.6504C100.976 13.5387 101.154 13.5083 101.204 13.5489C101.402 13.7163 101.621 13.7823 101.854 13.7417C101.945 13.7315 102.143 13.6605 102.473 13.5235C103.001 13.3053 103.32 13.2241 103.442 13.2799ZM105.908 12.2702C105.69 12.463 105.294 12.5746 104.716 12.6101C104.853 12.1382 105 11.8135 105.152 11.6359C105.365 11.3872 105.69 11.2807 106.101 11.3365C106.182 11.7577 106.116 12.0672 105.908 12.2702Z" fill="#5C4D4D"/>
<path d="M85.5708 26.3105C85.4744 26.0517 85.3627 25.8995 85.241 25.8437C84.8604 25.6813 84.4341 25.7625 83.9521 26.0923C83.7187 26.2547 83.5106 26.6201 83.3127 27.1833C83.2569 27.371 82.9981 28.2946 82.5516 29.9437C82.0391 29.1978 81.7651 28.8121 81.7296 28.7715C80.9938 28.0155 80.4458 27.5233 80.0754 27.2899C79.8318 27.1427 79.5984 27.097 79.365 27.1529C79.1011 27.2188 78.9235 27.4015 78.8423 27.7161C78.7713 28.0155 78.817 28.2692 78.9895 28.462C79.1468 28.6396 79.3802 28.736 79.6796 28.7462C81.0243 28.7715 81.8717 29.5479 82.2116 31.0651C82.2269 31.126 82.3537 31.4457 82.6074 32.019C82.7749 31.7958 82.8967 31.4964 82.9829 31.1158C83.47 29.1267 83.7339 28.0561 83.7745 27.914C83.9673 27.3051 84.1449 26.9651 84.3073 26.8941C84.4595 26.823 84.8299 26.8941 85.4338 27.1123C85.4591 27.1173 85.586 27.0767 85.8042 26.9905C85.6976 26.6911 85.6266 26.4628 85.5708 26.3105Z" fill="#5C4D4D"/>
<path d="M91.0154 25.8437C90.9951 26.2039 90.9799 26.4018 90.9849 26.4323C90.9951 26.4983 91.0763 26.7875 91.2133 27.3C91.2995 27.645 91.3554 27.9292 91.3655 28.1575C91.3706 28.2844 91.3097 28.4315 91.1879 28.599C91.0661 28.7563 90.9393 28.8679 90.8023 28.9339C90.7262 28.9643 90.6044 28.9237 90.4318 28.802C90.2542 28.6802 90.1375 28.5685 90.0919 28.4468C90.0361 28.2996 89.9955 28.0966 89.9701 27.8328C89.9447 27.4928 89.9244 27.2746 89.8991 27.1833C89.8737 27.0767 89.7519 26.7164 89.5185 26.0923C89.1227 26.4983 88.9146 26.7317 88.8741 26.7875C88.7472 27.0311 88.8182 27.2898 89.0922 27.574C89.1227 27.6044 89.1582 27.7567 89.1785 28.0358C89.2698 29.01 89.625 29.5935 90.2441 29.7965C90.5891 29.9081 90.9291 29.8929 91.2539 29.7559C91.533 29.6341 91.7511 29.4565 91.9034 29.213C92.1317 29.213 92.4362 29.2282 92.8167 29.2637C93.111 29.2789 93.3394 29.2485 93.4815 29.1673C93.6388 29.076 93.7656 28.9136 93.8722 28.665C93.9737 28.4112 94.0143 28.1931 93.9838 28.0155C93.9128 27.645 93.654 26.8839 93.1922 25.7422C93.1872 25.727 93.04 25.6001 92.7559 25.3667L92.4666 25.4885L93.2734 28.2692C92.7 28.3402 92.3144 28.1169 92.1216 27.574C92.0658 27.4268 91.7917 26.823 91.2894 25.7625L91.0154 25.8437Z" fill="#5C4D4D"/>
<path d="M96.6833 16.6597C96.3028 17.7202 96.1404 18.456 96.2063 18.867C96.3281 19.6535 96.8406 22.6219 97.7692 27.7773C98.7435 33.2017 99.4386 37.053 99.8496 39.3314H101.301C100.92 36.8653 100.21 32.3949 99.1798 25.9303C99.1697 25.8999 98.9617 24.6871 98.5506 22.2972L100.169 23.6976L100.413 23.4541C99.7685 21.399 98.5253 19.1359 96.6833 16.6597Z" fill="#5C4D4D"/>
<path d="M58.246 17.6133C57.9669 18.2222 57.7944 18.5774 57.7538 18.6839C57.5711 19.1203 57.5153 19.6227 57.5813 20.1961C57.6219 20.5259 57.7081 21.0282 57.8603 21.693C58.9665 27.6552 59.7784 32.1358 60.296 35.1296C60.3264 35.297 60.5345 36.7026 60.9303 39.331H62.4525C62.1887 37.6007 61.6407 34.1249 60.8085 28.8984L59.9256 23.4639L61.8335 25.0318L62.0669 24.8542C61.6863 23.8191 61.118 22.6165 60.3366 21.2312C59.408 19.6633 58.7077 18.4556 58.246 17.6133Z" fill="#5C4D4D"/>
<path d="M59.2202 39.3309C59.4232 39.001 59.682 38.5799 59.9865 38.0775C59.8038 37.9507 59.6922 37.8796 59.6516 37.8695L58.6976 37.702C56.3939 37.3215 54.5824 36.9815 53.2529 36.672C51.2791 36.2102 49.5132 35.647 47.9605 34.9924C46.2251 34.2515 44.7181 33.7543 43.4546 33.4752C41.7699 33.1149 40.1766 33.0489 38.6594 33.2976C37.0255 33.5665 36.2339 34.5205 36.2897 36.1696C36.5079 36.195 36.8225 36.2356 37.2488 36.2914C37.6293 36.332 37.949 36.3472 38.2027 36.332C38.4514 36.3168 38.766 36.332 39.1415 36.3878C39.3546 36.4233 39.6692 36.469 40.0853 36.5349C40.8363 36.6161 41.4553 36.469 41.9323 36.1036C41.9627 36.0833 42.0845 36.1138 42.3027 36.2051C44.2614 36.8648 46.3215 37.5701 48.473 38.316C48.4832 38.3211 48.6354 38.4429 48.9348 38.6966C48.6506 38.9452 48.4984 39.0771 48.4832 39.0822C48.2142 39.1736 47.9656 39.2547 47.7271 39.3309H59.2202Z" fill="#5C4D4D"/>
<path d="M101.301 39.3315H99.8497C100.108 40.7574 100.251 41.5642 100.291 41.7621C100.459 42.6653 100.154 43.3047 99.3727 43.67C97.7692 44.421 96.4905 44.964 95.5315 45.2938C92.4768 46.3543 90.0107 47.973 88.1231 50.1397C87.9861 50.3021 87.8339 50.4797 87.6816 50.6674H90.9698C91.3249 50.3934 91.6801 50.1549 92.0404 49.9621C93.2582 49.2974 95.2017 48.4094 97.8758 47.288C99.2509 46.7095 100.261 45.9027 100.895 44.8574C101.55 43.7817 101.768 42.5232 101.565 41.0872C101.509 40.7117 101.418 40.1181 101.301 39.3315Z" fill="#5C4D4D"/>
<path d="M93.2632 39.4229C93.3241 39.3924 93.385 39.3569 93.4408 39.3315H86.9661C85.9918 39.7375 85.2104 40.0622 84.6015 40.3058C84.3072 40.4276 84.0383 40.4124 83.8201 40.2703C83.338 39.9709 82.8407 39.6563 82.3232 39.3315H78.0202C78.7458 39.773 79.9789 40.5088 81.7092 41.5338C81.7853 41.5744 82.0339 41.7063 82.4754 41.9042L81.3083 42.7567C77.2083 45.7555 74.0978 48.3941 71.9869 50.6674H75.5947C76.5233 49.754 77.5382 48.7595 78.6393 47.6634C78.7205 47.5924 79.0097 47.3438 79.512 46.9226C79.4004 47.4656 79.1416 48.1201 78.7458 48.9016C78.4414 49.5003 78.1724 50.094 77.9542 50.6674H78.964C79.5983 49.2568 80.3493 47.7396 81.2221 46.0955C81.4758 45.6033 82.0745 45.0045 83.0183 44.2992C83.6222 43.8476 84.1042 43.9694 84.4594 44.6747C84.9719 45.6591 85.7889 46.2071 86.89 46.3238C87.4938 46.3797 87.8034 46.1209 87.7932 45.5475C87.778 44.355 87.438 43.4214 86.7733 42.7414C86.5957 42.5537 86.4891 42.4065 86.4638 42.3203C86.4181 42.1579 86.5145 42.026 86.7479 41.9296C87.2553 41.7215 89.0922 40.9908 92.2585 39.7527C92.1317 40.3768 92.0657 40.727 92.0556 40.7828C91.9338 42.0513 91.878 42.8277 91.878 43.1119C91.878 43.462 92.1114 43.7766 92.5833 44.0658C93.0501 44.355 93.4104 44.421 93.6743 44.2536C93.8468 44.147 93.9838 43.7918 94.0802 43.1981C94.1665 42.5994 94.1614 42.1833 94.0396 41.9397L93.8468 42.0767C93.6438 42.2949 93.4916 42.4471 93.385 42.5537C93.2074 42.7414 93.0704 42.8277 92.974 42.8023C92.5325 42.7211 92.3651 42.3253 92.4818 41.615C92.5833 41.001 92.7 40.4479 92.837 39.9557C92.9182 39.707 93.0653 39.5294 93.2632 39.4229Z" fill="#5C4D4D"/>
<path d="M57.9873 40.3718C58.0938 40.3921 58.2257 40.387 58.378 40.3464C58.5302 40.3058 58.6266 40.2398 58.6824 40.1586C58.789 40.0115 58.9666 39.7375 59.2203 39.3315H47.7271C44.2817 40.4428 42.115 41.1278 41.2067 41.3968C39.5931 41.8636 38.3449 41.3054 37.4569 39.7223C37.3858 39.5853 37.3148 39.4533 37.2438 39.3315H30.8451C30.7487 39.433 30.6574 39.5294 30.5711 39.6258C29.3482 41.006 28.8357 43.0154 29.0387 45.6439C29.0945 46.2985 28.8357 46.7501 28.2674 47.0089C26.2123 47.9628 24.3197 49.1857 22.5995 50.6674H27.557C27.76 50.571 27.968 50.4797 28.171 50.3985C30.0485 49.6627 32.0122 49.5917 34.0825 50.1955C34.7219 50.3832 35.4272 50.5355 36.2086 50.6573C36.2289 50.6674 36.2441 50.6674 36.2644 50.6674C36.3405 50.6725 36.4014 50.6725 36.4674 50.6674C36.6044 50.642 36.716 50.571 36.7921 50.4492C37.056 50.0179 37.127 49.5105 37.0103 48.9117C36.8886 48.3028 36.6044 47.8766 36.1782 47.6432C35.1938 47.085 34.3565 46.7501 33.6563 46.6486C32.2964 46.4507 31.1648 45.7099 30.2819 44.4058C30.0535 44.076 30.0231 43.7157 30.1906 43.3402C30.6929 42.163 31.6519 41.1075 33.0575 40.1434C33.9455 39.5548 34.6153 39.7476 35.0771 40.732L35.2902 41.3409C35.7671 42.6399 36.4928 43.5584 37.4772 44.081C38.4565 44.6088 39.6185 44.695 40.9581 44.355L42.115 44.0912C40.1107 47.6888 39.0603 49.5764 38.9639 49.7439C38.7965 50.0433 38.6341 50.3528 38.492 50.6674H39.2988C39.6337 49.8809 40.0549 49.0741 40.5522 48.2419C41.567 46.542 42.4804 45.2735 43.2872 44.4362C44.4543 43.2184 45.7888 42.3761 47.306 41.9143C50.0055 41.0872 51.751 40.595 52.5527 40.4327C54.5317 40.0369 56.3483 40.0115 57.9873 40.3718Z" fill="#5C4D4D"/>
<path d="M62.5996 40.3058C62.5641 40.0876 62.5184 39.7629 62.4525 39.3315H60.9302C61.0824 40.3515 61.26 41.5591 61.463 42.9393C61.534 43.4823 61.326 43.873 60.8186 44.1216C59.6363 44.7153 58.8041 45.101 58.3373 45.2887C56.1706 46.0245 54.5722 46.6486 53.5675 47.1712C51.8828 48.0389 50.3047 49.2009 48.8281 50.6674H52.8165C54.3946 49.6576 56.1756 48.8457 58.1495 48.247C58.2459 48.2216 58.6925 48.1201 59.4739 47.9425C59.205 48.6783 59.0629 49.0589 59.0477 49.0893C58.8701 49.475 58.6163 50.0027 58.3017 50.6674H59.1035C59.5145 49.6323 60.0777 48.5717 60.778 47.4859C62.3408 45.101 62.9447 42.7059 62.5996 40.3058Z" fill="#5C4D4D"/>
<path d="M11.2991 39.3315C11.2636 39.5193 11.2382 39.6969 11.2179 39.8846C11.0302 41.4475 11.0149 42.6805 11.1621 43.599C11.3701 44.9132 11.9334 46.0295 12.8518 46.9378C12.9228 46.9936 12.9634 47.1053 12.9736 47.2626C12.9787 47.4148 12.9634 47.5366 12.9178 47.6229C12.3444 48.6834 11.837 49.6982 11.4107 50.6674H12.2175C12.593 49.9316 12.8822 49.3227 13.07 48.8457C13.3694 48.0592 13.9478 47.3996 14.8155 46.8414C15.2266 46.5877 15.4853 46.3644 15.5767 46.1615C16.1145 45.0045 16.5357 43.9948 16.8148 43.1119C16.896 42.8683 16.9518 42.5537 16.9772 42.1579C17.0025 41.7215 17.0228 41.3968 17.0482 41.1786L16.7843 41.1126L16.4951 41.7926C16.0587 42.782 15.7999 43.3402 15.7137 43.4772C15.3179 44.0963 14.8663 44.4159 14.3589 44.421C13.8413 44.4312 13.41 44.1318 13.0446 43.5076C12.6641 42.8378 12.4002 41.9448 12.2632 40.8386C12.2074 40.3768 12.2175 39.8745 12.2733 39.3315H11.2991Z" fill="#5C4D4D"/>
<path d="M52.8165 50.6675H48.8281C48.1279 51.3525 47.4581 52.1086 46.8035 52.9255C45.4842 54.5797 43.9873 56.1172 42.3179 57.5329C41.506 58.2281 40.6738 58.4006 39.8264 58.0505C38.9841 57.7055 38.4767 56.99 38.2991 55.9142C38.2027 55.3256 38.1925 54.7421 38.2737 54.1535C38.4209 53.0625 38.7558 51.8954 39.2987 50.6675H38.4919C37.7561 52.276 37.4111 53.9962 37.4517 55.8432C37.4771 56.5942 37.7511 57.3401 38.2737 58.0657C38.8268 58.837 39.4814 59.314 40.2324 59.5017C42.191 59.9838 43.8097 59.6793 45.0986 58.5681C46.1033 57.7055 46.8289 56.9189 47.2805 56.2136C48.7317 53.9505 50.5788 52.0984 52.8165 50.6675Z" fill="#5C4D4D"/>
<path d="M27.5569 50.6675H22.5993C21.2496 51.8396 20.0013 53.1742 18.8444 54.6711C17.4845 56.4521 16.1246 57.7258 14.7444 58.497C13.8818 58.9791 13.1257 59.111 12.4712 58.8776C11.8115 58.6442 11.3041 58.0607 10.9438 57.1473C10.3603 55.6808 10.4922 54.0621 11.3193 52.3014C11.6694 51.7026 11.9637 51.1597 12.2174 50.6675H11.4106C10.7967 52.0325 10.3298 53.3213 10 54.5087V56.7718C10.0863 56.99 10.208 57.3401 10.3552 57.8069C10.4973 58.2129 10.6597 58.5224 10.8373 58.7406C11.7658 59.8722 13.0445 60.4608 14.6987 60.5014C16.3428 60.5521 17.6723 60.0396 18.6871 58.9639C20.7219 56.6449 22.2797 54.9298 23.3503 53.8287C24.7711 52.3826 26.1716 51.3221 27.5569 50.6675Z" fill="#5C4D4D"/>
<path d="M87.6817 50.6675C87.2706 51.1597 86.7937 51.7686 86.271 52.479C85.2968 53.778 84.698 54.5746 84.4747 54.8588C83.2975 56.3608 82.0036 57.2031 80.5929 57.3706C79.5172 57.4923 78.7561 57.0712 78.2943 56.1121C77.7311 54.9197 77.6499 53.8135 78.0558 52.7936C78.3197 52.1238 78.6241 51.4083 78.9641 50.6675H77.9543C77.3353 52.3166 77.0714 53.8592 77.1729 55.3104C77.2642 56.4318 77.6905 57.3909 78.4567 58.1875C79.2381 59.0045 80.1718 59.4256 81.2424 59.451C82.6531 59.4764 83.7897 59.0146 84.6625 58.0657C85.5961 57.056 86.5806 55.8178 87.6005 54.3565C88.7219 52.753 89.8433 51.525 90.9698 50.6675H87.6817Z" fill="#5C4D4D"/>
<path d="M71.987 50.6675C71.8652 50.7893 71.7536 50.911 71.647 51.0328C70.622 52.1796 68.8409 53.8592 66.319 56.0715C64.6039 57.5837 62.9751 58.4869 61.4528 58.8015C60.1589 59.0603 59.2202 58.5833 58.6519 57.3706C58.4743 56.9849 58.3626 56.6297 58.3119 56.2948C58.048 54.5087 58.3119 52.6312 59.1035 50.6675H58.3017C58.185 50.9009 58.0632 51.1597 57.9313 51.4286C56.8454 54.0875 56.6678 56.5282 57.4036 58.7457C58.0227 60.5927 58.9969 61.6329 60.3264 61.8765C61.9958 62.1759 63.3303 61.9323 64.3299 61.1407C66.2987 59.5981 67.6739 58.4412 68.4654 57.6801C68.6583 57.4923 71.033 55.1531 75.5948 50.6675H71.987Z" fill="#5C4D4D"/>
<path d="M78.0609 35.947C78.2131 35.8658 78.3349 35.8252 78.4414 35.8303C81.4606 35.9115 83.5817 36.0028 84.7893 36.0992C85.383 36.1449 87.6816 36.3986 91.67 36.8451C91.6954 36.8502 91.8222 36.8756 92.0506 36.9162L92.1064 37.1039C91.7918 37.2866 91.6142 37.383 91.5888 37.3931C89.7469 38.1695 88.2043 38.819 86.9662 39.3315H93.4409C94.7907 38.6312 95.6533 38.2253 96.0288 38.1187C96.9066 37.8701 97.5257 37.2612 97.891 36.3022C98.094 35.7592 98.1549 35.4294 98.0838 35.2975C98.0128 35.1706 97.688 35.0539 97.135 34.9676C95.3539 34.6683 94.0143 34.4501 93.1212 34.3029C91.533 34.034 90.1883 33.8412 89.0974 33.7194C86.6262 33.4454 83.3939 33.1866 79.4005 32.9532C78.7155 32.9126 78.0457 33.1003 77.3911 33.5113C76.7619 33.9071 76.3509 34.3841 76.153 34.9423C75.95 35.5258 75.9652 36.2362 76.1986 37.0785C76.432 37.9412 76.8025 38.5399 77.3099 38.89C77.4164 38.9611 77.6499 39.1082 78.0203 39.3315H82.3232C81.0598 38.5348 79.7049 37.6621 78.2689 36.7132L77.6752 36.1398C77.7615 36.1043 77.8934 36.0434 78.0609 35.947Z" fill="#5C4D4D"/>
<path d="M17.043 27.3149C16.8502 27.4266 16.6929 27.5179 16.5812 27.5788C16.4595 27.6854 16.3732 27.7818 16.3072 27.8782C14.8814 30.0906 13.8006 31.9883 13.0699 33.5918C12.1768 35.5555 11.578 37.4634 11.299 39.3307H12.2732C12.3848 38.2601 12.7248 37.027 13.2931 35.6621C13.6991 34.698 14.2369 33.4954 14.922 32.0594C15.9876 29.8216 16.5508 28.6342 16.6168 28.4871C16.632 28.4465 16.7741 28.0558 17.043 27.3149Z" fill="#5C4D4D"/>
<path d="M37.2436 39.331C36.8174 38.5648 36.4825 37.9965 36.244 37.6362C35.8938 37.1085 35.564 36.7837 35.2342 36.6822C34.879 36.5605 34.4528 36.6467 33.9453 36.9461C32.6666 37.7072 31.6264 38.4988 30.845 39.331H37.2436Z" fill="#5C4D4D"/>
<path d="M103.473 19.2421C103.635 19.5973 103.741 19.9525 103.797 20.3077C104.041 21.901 104.386 24.3062 104.843 27.4979C105.32 30.5069 106.06 35.023 107.06 41.041C107.146 41.584 107.385 42.9794 107.776 45.2222L108.141 45.1917C108.227 44.593 108.293 44.1465 108.334 43.8471C108.405 43.3041 108.42 42.8627 108.4 42.5024C108.237 40.3205 107.963 37.3419 107.578 33.5819C107.527 33.1404 107.654 32.8207 107.963 32.6533C109.694 31.6892 110.587 31.197 110.637 31.1716C112.449 30.0654 113.636 29.2891 114.174 28.8273C114.722 28.3656 115.285 28.2286 115.859 28.4315C116.011 28.4873 116.189 28.5178 116.376 28.5279C116.574 28.5279 116.711 28.4924 116.767 28.4214C117.082 28.0357 117.173 27.6755 117.041 27.3456C116.534 26.0923 115.813 25.3261 114.854 25.0267C114.697 24.976 114.489 24.9912 114.225 25.0673C113.966 25.1383 113.819 25.2348 113.778 25.3413C113.449 26.2953 113.296 27.1122 113.322 27.7972C113.347 28.3757 113.175 28.7766 112.804 28.9948C111.393 29.9081 110.323 30.5729 109.592 30.994C109.531 31.0245 108.75 31.4 107.253 32.1103L105.639 22.5251L105.842 22.3982L107.857 23.6262C107.501 22.4033 106.948 21.1043 106.182 19.7089C105.254 18.1308 104.553 16.9434 104.097 16.1519C103.153 17.0804 102.95 18.1156 103.473 19.2421ZM114.402 27.5993C114.149 27.1934 114.012 26.9346 113.971 26.8281C113.966 26.823 114.108 26.7063 114.408 26.4881L114.859 27.3812L114.402 27.5993Z" fill="#5C4D4D"/>
<path d="M119.898 14.1374C119.857 13.9598 119.791 13.8279 119.71 13.7467C119.614 13.6503 119.106 13.2393 118.198 12.5137C117.899 12.8181 117.64 13.3053 117.422 13.9598C117.214 14.6246 117.158 15.132 117.254 15.4872C117.351 15.8627 117.503 16.1012 117.711 16.2179C117.939 16.3397 118.198 16.2991 118.487 16.0961C118.863 15.8373 119.33 15.3096 119.888 14.5078C119.944 14.4368 119.944 14.315 119.898 14.1374ZM118.188 14.041L118.766 14.7057L117.995 15.2436L117.665 14.929L118.188 14.041Z" fill="#5C4D4D"/>
<path d="M127.454 16.4414C127.519 16.411 127.58 16.34 127.641 16.2182C127.672 16.1522 127.717 16.0558 127.778 15.9188C127.469 15.863 127.286 15.8376 127.22 15.8376C127.053 15.8833 126.921 15.9188 126.834 15.9442C125.317 16.3704 123.531 17.0504 121.461 17.9891C119.147 19.08 117.407 19.8818 116.229 20.3892C115.697 20.6226 115.382 20.7038 115.285 20.648C115.184 20.5922 115.103 20.2674 115.062 19.694C114.956 18.4305 114.418 17.2838 113.423 16.2486C112.515 15.3048 111.51 14.6959 110.389 14.4473L110.216 14.6249C110.719 15.1221 111.008 15.4063 111.089 15.4621C111.942 16.0862 112.54 16.548 112.875 16.8626C113.489 17.4309 113.941 18.0195 114.23 18.6437C114.641 19.5164 114.763 20.1862 114.611 20.6581C114.438 21.1503 113.926 21.5867 113.053 21.9571C112.119 22.3631 111.348 22.7741 110.729 23.2054C110.587 23.3018 110.455 23.4693 110.318 23.723C110.181 24.0122 110.064 24.2253 109.983 24.3522L110.196 24.4993L110.556 24.3522C115.884 21.3533 120.913 19.009 125.647 17.3244C126.124 17.1569 126.723 16.8575 127.454 16.4414Z" fill="#5C4D4D"/>
<path d="M125.018 25.1076C124.921 25.0264 124.779 24.7981 124.576 24.4175L123.81 23.017L123.536 23.1337C123.617 23.5447 123.739 24.1689 123.891 24.9909C123.962 25.3055 123.932 25.5643 123.795 25.7825C123.658 25.9854 123.455 26.1072 123.191 26.1326C122.958 26.158 122.643 25.9144 122.242 25.407C122.186 25.3309 122.176 25.0721 122.232 24.6255C122.247 24.4733 122.313 23.9507 122.435 23.0525C120.969 23.2859 120.436 23.9405 120.847 25.001L121.501 24.6661C121.557 25.001 121.588 25.5085 121.578 26.2036C121.654 26.7821 121.928 27.1576 122.4 27.3606C122.861 27.5585 123.298 27.4823 123.724 27.1525C123.962 26.9648 124.318 26.6349 124.779 26.163C125.14 26.4878 125.48 26.6603 125.809 26.6806C126.139 26.7009 126.383 26.569 126.535 26.295C126.819 25.8028 126.794 25.138 126.464 24.3211C126.124 23.4889 125.632 22.9307 124.987 22.6567L125.916 25.1786C125.535 25.3156 125.236 25.2903 125.018 25.1076Z" fill="#5C4D4D"/>
<path d="M108.38 53.7012C108.44 53.6099 108.527 53.4881 108.633 53.3207L108.43 53.1431C107.248 53.757 106.35 54.2188 105.756 54.5182C104.691 55.0662 103.813 55.5533 103.123 55.9643C102.169 56.5276 100.383 57.7048 97.7541 59.4909C97.6323 59.5721 97.5206 59.7091 97.3989 59.9121C97.2771 60.1455 97.1756 60.3079 97.0995 60.4145L97.3735 60.6174L97.8505 60.3485C101.717 58.0448 104.016 56.6747 104.741 56.2333C105.65 55.6751 106.771 54.9343 108.09 54.0209C108.187 53.96 108.283 53.8535 108.38 53.7012Z" fill="#5C4D4D"/>
<path d="M125.891 52.2201C125.865 52.2099 125.535 52.0577 124.891 51.7583C124.247 52.3469 123.932 53.174 123.957 54.2396C123.973 54.7978 124.257 55.1377 124.81 55.2545C125.069 55.3001 125.414 55.1783 125.85 54.8993C126.276 54.6151 126.525 54.3462 126.616 54.0772C126.88 53.2704 126.642 52.6463 125.891 52.2201ZM126.073 53.7322C125.865 54.3309 125.332 54.4832 124.49 54.1838L124.932 52.8442L125.216 52.6869C125.317 52.8087 125.51 52.9964 125.794 53.2603C126.012 53.4886 126.109 53.6408 126.073 53.7322Z" fill="#5C4D4D"/>
<path d="M83.4041 49.881C83.3889 49.8759 83.0641 49.5969 82.4349 49.0742C81.4759 50.0282 81.075 51.0735 81.2425 52.2101C81.2679 52.3674 81.3643 52.5349 81.5266 52.7226C81.689 52.9053 81.8159 52.9865 81.9224 52.9814C82.6886 52.89 83.2823 52.6972 83.6933 52.3978C84.0942 52.0985 84.2566 51.6722 84.1855 51.1039C84.1145 50.5508 83.8456 50.15 83.4041 49.881ZM82.9626 50.8756C83.1961 51.0887 83.3483 51.2714 83.4041 51.4337C83.4701 51.6316 83.3128 51.7889 82.9525 51.9209C82.5719 52.0477 82.1964 52.068 81.8159 51.9665L82.2523 50.2464C82.4197 50.4138 82.6633 50.6269 82.9626 50.8756Z" fill="#5C4D4D"/>
<path d="M99.2915 54.4577C99.398 54.1431 99.4843 53.9097 99.5502 53.7626L99.3574 53.6509C98.2715 54.5643 97.4343 55.2341 96.8609 55.6502C95.8663 56.3758 94.887 56.7716 93.928 56.8376L93.6996 56.6295C93.9483 56.2388 94.339 55.6553 94.8464 54.889C95.161 54.3765 95.3437 54.0366 95.3995 53.8691C95.5467 53.4632 95.5213 53.0928 95.3386 52.7528C95.2168 52.5244 94.8312 52.494 94.1817 52.6564C93.5474 52.8086 93.0704 53.0522 92.7761 53.3769C92.766 53.3921 92.5884 53.7169 92.2484 54.3562L94.2984 53.8387C94.2832 53.9757 94.1513 54.2903 93.9128 54.7673C93.7961 55.0007 93.6134 55.3407 93.3647 55.7923C93.1618 56.1982 93.0349 56.5534 92.974 56.8528C92.8624 57.4769 92.9994 57.9285 93.385 58.2127C93.7808 58.5019 94.2426 58.4867 94.7652 58.1569C95.6888 57.5835 97.0842 56.5483 98.9312 55.0362C99.0682 54.9296 99.19 54.7368 99.2915 54.4577Z" fill="#5C4D4D"/>
<path d="M161.4 47.9069C161.309 47.8816 161.177 48.0389 160.974 48.3535C160.741 48.7493 160.563 49.0233 160.456 49.1704C160.416 49.277 160.375 49.3379 160.345 49.3785C160.056 49.754 160.096 50.0838 160.472 50.368C160.756 50.5861 161.547 51.1595 162.826 52.1084C163.4 50.8449 163.714 50.1244 163.77 49.9366C163.816 49.7844 163.816 49.6068 163.76 49.3886C163.714 49.1603 163.633 49.0081 163.526 48.937C162.715 48.3789 162.004 48.0389 161.4 47.9069Z" fill="#5C4D4D"/>
<path d="M163.953 54.3203C164.029 54.2391 164.145 54.1123 164.303 53.9397L164.115 53.6606C163.465 53.8585 163.1 53.9803 163.034 54.0057C161.664 54.5943 160.467 55.1322 159.442 55.5939C157.468 56.487 156.067 57.1365 155.22 57.5424C154.697 57.8012 154.535 58.1666 154.728 58.6334C155.443 58.3442 155.819 58.1869 155.849 58.1716C157.452 57.4663 158.767 56.8777 159.797 56.4109C161.659 55.5584 162.912 54.9698 163.577 54.6349C163.689 54.5791 163.816 54.4776 163.953 54.3203Z" fill="#5C4D4D"/>
<path d="M147.862 36.9717C147.705 37.1188 147.583 37.2152 147.502 37.2711C147.365 37.3573 147.076 37.5298 146.624 37.7988C146.325 37.1594 146.172 36.8093 146.162 36.7535C146.122 36.5505 146.172 36.2105 146.299 35.7336C146.309 35.7031 146.477 35.1754 146.807 34.1504C145.888 35.15 145.477 36.2258 145.574 37.3675C145.614 37.748 145.817 38.3062 146.198 39.042C146.233 39.1231 146.33 39.1891 146.487 39.2348C146.639 39.2855 146.766 39.3007 146.883 39.2754C147.228 39.2196 147.517 38.905 147.751 38.3468C147.994 37.7785 148.035 37.3218 147.862 36.9717Z" fill="#5C4D4D"/>
<path d="M142.595 54.3761L142.423 54.2188C142.189 54.2746 142.077 54.305 142.072 54.3152C138.394 56.2535 135.648 57.72 133.817 58.6993C133.482 58.882 133.177 59.1357 132.893 59.4604C132.868 59.4807 132.802 59.7345 132.685 60.2165C135.324 58.9175 138.389 57.2684 141.875 55.2843C142.006 55.2133 142.133 55.0814 142.265 54.8784C142.336 54.7769 142.448 54.6044 142.595 54.3761Z" fill="#5C4D4D"/>
<path d="M141.819 60.1207C141.621 60.2374 141.403 60.3947 141.169 60.5976C141.149 60.6179 141.022 60.76 140.778 61.029L140.91 61.2218L142.169 60.6382C145.391 58.9739 147.781 57.1116 149.344 55.0515C149.435 54.9297 149.973 54.3715 150.968 53.3618C151.297 53.0269 151.642 53.0066 152.013 53.3009C152.434 53.6358 152.809 53.7982 153.139 53.7728C153.454 53.7474 153.824 53.5546 154.235 53.1893C154.585 52.8899 154.986 52.6818 155.443 52.5651C155.935 52.4535 156.245 52.1795 156.372 51.7431C156.504 51.2966 156.382 50.8348 156.016 50.373L155.687 51.8091C155.179 51.4691 154.778 51.1849 154.464 50.9566C154.098 51.7482 153.89 52.1947 153.824 52.286C153.769 52.3723 153.647 52.4383 153.464 52.4789C153.286 52.5195 153.149 52.5195 153.043 52.4789C152.358 52.1795 151.901 52.0425 151.668 52.0729C151.419 52.1135 151.039 52.3875 150.531 52.9C148.821 54.6303 147.451 55.9395 146.431 56.8326C144.858 58.1975 143.321 59.2885 141.819 60.1207Z" fill="#5C4D4D"/>
<path d="M40.958 17.6742C41.0595 17.0348 40.7956 16.6999 40.1766 16.6847C38.6695 16.6441 37.7105 16.6289 37.2842 16.6289C36.5079 16.6391 35.8634 16.8877 35.3408 17.3748C34.8182 17.867 34.5035 18.5317 34.3868 19.3538L38.3549 19.1762L38.4818 19.5263L35.5996 21.5814L35.7163 21.8199C37.0001 21.759 38.1519 21.3023 39.182 20.465C40.207 19.6278 40.8058 18.6992 40.958 17.6742Z" fill="#5C4D4D"/>
<path d="M27.8969 20.2823C27.6534 20.3736 27.491 20.4802 27.4047 20.602C27.0749 21.084 26.806 21.6675 26.6233 22.3373C26.5675 22.5505 26.3696 23.4892 26.06 25.1536C25.6947 24.6208 25.4207 24.23 25.2431 23.9814C24.9386 23.5349 24.6646 23.1949 24.416 22.9463C24.0506 22.5809 23.457 22.2257 22.6248 21.8705C22.503 21.8147 22.3254 21.8198 22.1021 21.8807C21.8687 21.9365 21.7368 22.0075 21.7165 22.0938C21.6252 22.3779 21.6657 22.7687 21.8383 23.2456C21.9398 23.5501 22.1275 23.7226 22.4066 23.7531C22.5284 23.7734 23.0764 23.7784 24.0659 23.7784L24.2993 23.6414L25.9687 27.1934L26.1869 27.1376C26.2732 26.5439 26.3493 26.1024 26.4203 25.8183C26.943 23.6262 27.2677 22.3475 27.3793 21.9974C27.5062 21.5864 27.6635 21.358 27.8411 21.3225C27.9984 21.2819 28.2673 21.3834 28.6378 21.6371C28.8204 21.7589 28.9828 21.8147 29.1198 21.7995C29.272 21.7792 29.3279 21.6675 29.2873 21.4494C29.1909 21.0028 28.8864 20.607 28.379 20.2468C28.2876 20.1859 28.1303 20.196 27.8969 20.2823Z" fill="#5C4D4D"/>
<path d="M31.1443 32.7246C30.8906 33.7141 31.3016 34.1505 32.3773 34.0439C32.8036 34.0034 33.174 33.8258 33.4937 33.5264C33.8235 33.2168 34.0417 32.8363 34.1482 32.3948C34.3106 31.7402 34.0112 31.1313 33.2552 30.5884C33.2146 30.5579 32.8746 30.218 32.2454 29.5786C31.5553 31.522 31.1849 32.5724 31.1443 32.7246ZM32.1439 33.4198C31.7786 32.9682 31.601 32.7246 31.5908 32.6993C31.5553 32.4202 31.6314 32.0853 31.8242 31.7199C32.0221 31.3597 32.1896 31.2125 32.3367 31.2785C32.4179 31.3191 32.8442 31.6337 33.6053 32.2223L32.1439 33.4198Z" fill="#5C4D4D"/>
<path d="M51.1572 26.1738L50.9897 26.2855C51.2841 27.96 51.4414 28.8277 51.4464 28.8733C51.5378 29.5076 51.3348 29.807 50.8375 29.7816C50.1829 29.7461 49.8785 29.467 49.9242 28.9241C49.9648 28.4725 49.9648 28.0665 49.914 27.7113C49.8988 27.5794 49.8531 27.4373 49.7821 27.2648C49.706 27.0872 49.6501 27.0009 49.6096 27.006C49.229 27.0568 48.9398 27.1785 48.7419 27.3815C48.6657 27.4576 48.5947 27.5896 48.5287 27.7773C48.4881 27.8788 48.4323 28.0767 48.3461 28.3405L49.3457 27.9549V29.2235C49.3457 29.6599 49.3508 29.9288 49.3761 30.015C49.432 30.2992 49.6045 30.4616 49.8785 30.5022C50.2692 30.5681 50.873 30.487 51.69 30.2485C51.7763 30.2282 51.8676 30.1368 51.9539 29.9846C52.0097 29.8933 52.0909 29.7563 52.1974 29.5685L53.0651 29.7816C53.5573 29.8882 53.9024 29.8628 54.1155 29.7106C54.3337 29.5482 54.4453 29.2133 54.4504 28.7211C54.4707 27.7266 53.9633 26.798 52.9281 25.9404C52.8418 26.2246 52.8266 26.458 52.8977 26.6356C53.0042 26.9198 53.197 27.3308 53.4609 27.8788C53.4711 27.9042 53.4863 28.1883 53.5167 28.7313C53.2782 28.6551 53.1006 28.5943 52.9789 28.5537C52.7607 28.4776 52.6135 28.3964 52.5323 28.2949C52.4004 28.1325 52.2583 27.8889 52.1061 27.5743C51.9234 27.1684 51.7915 26.9198 51.7306 26.8132C51.7052 26.7828 51.5175 26.5696 51.1572 26.1738Z" fill="#5C4D4D"/>
<path d="M41.8357 24.9506L41.6074 24.7324C41.4298 25.0724 41.2877 25.316 41.1659 25.4682C40.4657 26.3257 40.1257 27.4827 40.1358 28.9491C40.1409 29.7407 40.491 30.2177 41.1659 30.3699C41.4856 30.446 41.785 30.3293 42.0691 30.0401C42.6425 29.4515 42.7186 28.8172 42.3076 28.1474C42.1148 28.6396 42.0032 28.9237 41.9626 28.9796C41.785 29.2789 41.6226 29.4159 41.4856 29.4007C41.3993 29.3906 41.2928 29.3449 41.1913 29.2485C41.0746 29.1419 41.0137 29.0506 41.0035 28.9643C40.9223 28.4366 40.9325 27.985 41.0188 27.6197C41.0441 27.5334 41.3131 26.6403 41.8357 24.9506Z" fill="#5C4D4D"/>
<path d="M67.7704 12.4076C67.4405 12.2046 67.1209 12.164 66.8063 12.296C66.5881 12.3822 66.3293 12.5852 66.0248 12.8998C65.5326 13.4427 65.147 13.8639 64.8628 14.1785L63.9342 12.6664L63.7414 12.707V14.5692C63.3304 14.4627 63.026 14.3866 62.8382 14.346C62.5084 14.2648 62.2344 14.2343 62.0263 14.2597C61.2753 14.3307 60.9252 14.8077 60.9658 15.6906C61.7472 15.0513 62.4373 14.9853 63.0361 15.4978C63.0767 15.5283 63.2695 15.4826 63.6146 15.3456C63.7617 15.2948 63.985 15.1984 64.2844 15.0462L64.3858 16.0306L64.5634 16.0864L65.1673 15.2289C66.1923 15.4826 67.0143 15.1477 67.6334 14.2445C67.8769 13.8944 68.0139 13.5392 68.0393 13.1687C68.0697 12.7882 67.9835 12.5345 67.7704 12.4076ZM66.4561 14.3155C66.1923 14.346 65.9995 14.3713 65.8726 14.3967L65.7305 14.1633C66.1923 13.6508 66.4511 13.3717 66.517 13.3311C66.5881 13.2905 66.7099 13.2702 66.8773 13.2956C66.9737 13.3057 67.1209 13.3311 67.3035 13.3514C67.2731 13.4427 67.2325 13.595 67.1818 13.8132C67.1259 14.0009 67.065 14.1125 66.9889 14.1531C66.8621 14.2293 66.6845 14.2749 66.4561 14.3155Z" fill="#5C4D4D"/>
<path d="M65.4667 17.502L65.1673 17.5273C65.1216 17.8115 65.0252 18.2326 64.873 18.7908C64.7563 19.283 64.7157 19.694 64.7563 20.0188C64.8628 20.8256 65.0506 21.9825 65.3246 23.4794C65.6189 25.0575 65.8117 26.2043 65.9081 26.935C66.4815 31.1009 67.2985 37.3422 68.3691 45.6742C68.4249 46.1207 68.5518 46.8006 68.7396 47.714C68.9222 47.6227 69.0186 47.577 69.0186 47.5668C69.11 47.3842 69.1556 47.2269 69.1759 47.1152C69.7138 44.1722 69.8407 41.7924 69.5514 39.9707C69.3688 38.8341 68.6431 34.1708 67.3847 26.0115C67.3441 25.7679 67.2071 24.7581 66.9737 22.9872L68.5772 24.4892L68.8816 24.2558C68.6482 23.1394 68.1814 21.9571 67.4964 20.7241C67.1818 20.1659 66.5069 19.0902 65.4667 17.502Z" fill="#5C4D4D"/>
<path d="M54.1052 19.4601C54.1458 19.4449 54.3894 19.2318 54.8461 18.836L54.704 18.5366C53.4202 18.836 52.7301 18.9984 52.6235 19.039C48.9498 20.2923 45.9357 21.3376 43.5812 22.185C35.0159 25.2752 28.0084 28.2335 22.5434 31.0649C21.9548 31.3643 21.1328 31.8819 20.0875 32.6024C20.0012 32.6582 19.92 32.7749 19.8389 32.9272C19.7881 33.0185 19.7171 33.1555 19.6257 33.323L19.8287 33.46C22.2948 32.161 23.6242 31.4556 23.812 31.3643C31.6009 27.5586 41.0137 23.8747 52.0248 20.3075C52.6337 20.1147 53.3238 19.8306 54.1052 19.4601Z" fill="#5C4D4D"/>
<path d="M72.535 34.3127L72.9916 31.6639L72.7836 31.603C72.6618 31.6588 72.606 31.6994 72.6009 31.74C72.124 33.9626 71.8499 35.3224 71.7688 35.8146C71.7282 36.0734 71.8804 36.3728 72.2102 36.7229C72.54 37.0528 72.8343 37.205 73.0678 37.1796C73.3722 37.1441 73.5904 36.9868 73.7274 36.7128C73.7477 36.6468 73.8289 36.383 73.9507 35.906C73.9608 35.8806 73.9608 35.6066 73.9608 35.0687L73.1794 36.0328C72.7988 35.8654 72.5654 35.6117 72.4944 35.2819C72.4538 35.089 72.4589 34.7643 72.535 34.3127Z" fill="#5C4D4D"/>
<path d="M25.2938 35.8454C24.5175 36.4695 24.1471 37.3524 24.1724 38.4941V40.0874L23.8933 40.128C23.4976 39.3567 23.254 38.895 23.1474 38.7377C22.5842 37.7989 21.8687 37.2966 20.996 37.2205C20.6661 37.2002 20.4327 37.2712 20.2957 37.4488C20.1587 37.6214 20.1435 37.8598 20.2348 38.1795C20.3515 38.6058 20.6763 38.8341 21.1837 38.8493C21.8992 38.8595 22.3457 38.961 22.5132 39.1487C22.7313 39.3821 22.9546 39.7069 23.183 40.1128C23.3098 40.3462 23.4976 40.6913 23.7462 41.1632C23.7614 41.1835 23.8933 41.493 24.142 42.0664L24.4211 41.9953C24.5936 40.0722 24.69 39.0675 24.6951 38.9863C24.8422 38.0628 24.9234 37.5706 24.9488 37.4996C25.101 36.9414 25.375 36.4796 25.7657 36.1295C25.9535 36.4847 26.06 36.6725 26.0753 36.6826C26.1209 36.7232 26.3239 36.8348 26.6842 37.0124C26.7755 36.5608 26.8161 36.3173 26.806 36.2868C26.7045 35.9367 26.5015 35.7185 26.1869 35.6272C25.8824 35.5409 25.5831 35.6119 25.2938 35.8454Z" fill="#5C4D4D"/>
<path d="M20.5697 46.1205C20.3515 46.1205 20.1435 46.2676 19.9354 46.5569C19.7172 46.8562 19.6208 47.1455 19.6614 47.4398C19.7883 48.5054 19.428 49.434 18.5705 50.2357C18.2559 50.53 17.8245 50.9968 17.2512 51.6463L13.4252 55.5586L13.4962 55.6499C14.1102 55.3252 14.4299 55.1476 14.4654 55.1222C16.7285 53.1432 18.2812 51.7427 19.1185 50.9309C19.5498 50.5198 19.8948 49.9211 20.1688 49.1397C20.2754 48.8352 20.3769 48.6272 20.4987 48.5155C20.6407 48.3684 20.8589 48.2872 21.1583 48.2618C21.3105 48.2567 21.4831 48.1908 21.6657 48.0538C21.8433 47.9218 21.9651 47.7848 22.0209 47.6478C22.1021 47.4398 21.9398 47.1303 21.544 46.7192C21.1532 46.3133 20.8285 46.1103 20.5697 46.1205Z" fill="#5C4D4D"/>
<path d="M72.0832 42.1829C72.0325 42.2691 72.0173 42.3402 72.0325 42.4163C72.1238 42.7157 72.1847 42.8831 72.2253 42.9085C73.0829 43.4971 73.7831 43.9386 74.321 44.2176C74.4123 44.2582 74.5544 44.2532 74.7421 44.1973C74.9248 44.1314 75.0466 44.0553 75.0872 43.969C75.1937 43.7559 75.4728 43.0607 75.9346 41.8835C75.8585 41.7262 75.8128 41.6044 75.7722 41.5283C75.7062 41.3862 75.6352 41.2999 75.5642 41.2594C75.2496 41.1071 74.4275 40.757 73.0981 40.209C72.4942 41.371 72.1543 42.0256 72.0832 42.1829Z" fill="#5C4D4D"/>
<path d="M65.0961 46.217L64.8171 46.1206C63.9341 48.6374 63.4521 50.043 63.3709 50.3272C63.2187 50.8853 63.1629 51.7276 63.1933 52.8592C63.2288 53.6762 63.5739 54.1125 64.2437 54.1836C65.0251 54.2648 65.5478 53.9248 65.8116 53.1637C65.903 52.915 65.974 52.5852 66.0247 52.1691C66.0653 51.7073 66.0958 51.3674 66.1262 51.1441L65.7812 51.0528L65.4818 51.9458C65.3651 52.2909 65.152 52.4939 64.8627 52.5649C64.5634 52.641 64.3147 52.5446 64.1117 52.2655C63.8783 51.9509 63.7921 51.5805 63.8479 51.1492C63.9037 50.7382 64.0813 49.9314 64.3807 48.7186C64.4263 48.5309 64.6699 47.6987 65.0961 46.217Z" fill="#5C4D4D"/>
<path d="M53.9684 57.5725C53.7299 56.6997 53.3899 55.969 52.9536 55.3956C52.4715 54.7563 51.9489 54.4264 51.3805 54.396C51.1674 54.9034 51.3247 55.4362 51.8524 55.9893C53.4153 57.6435 53.938 59.3535 53.4153 61.0991L53.5168 61.5304C53.9227 61.2513 54.1561 60.7287 54.217 59.9421C54.283 59.2216 54.2018 58.43 53.9684 57.5725Z" fill="#5C4D4D"/>
<path d="M75.4528 57.9792C75.4731 57.9437 75.5948 57.6646 75.8029 57.1217L75.5948 56.9897C73.0273 58.4207 71.165 59.7907 70.0132 61.0847C69.9371 61.1557 69.8914 61.2724 69.8508 61.4399C69.8254 61.5312 69.795 61.6682 69.7544 61.8509L69.9726 61.9727C70.3735 61.7545 70.6627 61.587 70.8504 61.4551C72.0835 60.5569 73.3064 59.6537 74.5242 58.7404C75.0164 58.375 75.331 58.1264 75.4528 57.9792Z" fill="#5C4D4D"/>
<path d="M42.7036 50.7482C42.4042 50.464 42.2926 50.0936 42.3839 49.6318L42.0389 49.7282C41.4807 51.7275 41.1915 52.8337 41.1509 53.0519C41.1153 53.2396 41.1559 53.4629 41.2625 53.7166C41.3691 53.9652 41.4959 54.153 41.6481 54.2646C41.8816 54.4371 42.252 54.4168 42.7543 54.1987C43.2465 53.9805 43.5916 53.7166 43.8098 53.3817C44.0077 53.0671 44.099 52.722 44.0584 52.3415C44.0178 51.9609 43.8656 51.6463 43.5814 51.3926C43.1704 51.1287 42.8812 50.9105 42.7036 50.7482ZM41.7446 53.4426L42.0389 51.4687L43.5764 52.6865L41.7446 53.4426Z" fill="#5C4D4D"/>
<path d="M52.0046 44.3343C51.8727 44.243 51.7763 44.177 51.7205 44.1313C50.6802 45.2731 50.1322 45.8769 50.0612 45.953C49.295 46.6888 48.5085 46.9425 47.7017 46.7091C48.0163 45.6841 48.1837 45.0853 48.2142 44.9128C48.2395 44.8113 48.2142 44.6743 48.1584 44.4865C48.1025 44.3089 48.0569 44.2176 48.0163 44.2176C47.3465 44.243 46.839 44.3242 46.4737 44.4612C46.3976 44.4967 46.3215 44.6134 46.2504 44.8164C46.1033 45.2122 46.0322 45.4151 46.0221 45.4304L47.3871 45.0752C47.1384 45.9834 46.9913 46.5467 46.9355 46.775C46.7477 47.5514 47.0471 47.8914 47.8437 47.8051C49.5791 47.6021 50.939 46.5568 51.9488 44.6895C51.9539 44.6743 51.9793 44.5525 52.0046 44.3343Z" fill="#5C4D4D"/>
<path d="M33.5191 56.9689C33.6866 56.634 33.7779 56.4006 33.8033 56.2788C33.8439 56.0098 33.7525 55.8119 33.5191 55.6546C33.1639 55.4212 32.4332 55.066 31.327 54.5738C31.2966 54.5637 31.1647 54.6855 30.9465 54.9544L29.9976 56.1824L27.4909 54.7666C27.3082 55.0356 27.2017 55.1878 27.1865 55.2183C26.7907 55.9895 26.5573 56.4411 26.4913 56.5934C26.3391 56.9435 26.2934 57.2074 26.3492 57.3951C26.405 57.5879 26.5877 57.7858 26.8972 57.9786C27.0799 58.1004 27.5417 58.344 28.2673 58.7144C28.7087 58.9377 29.0081 59.0189 29.1603 58.958C29.3075 58.892 29.4648 58.618 29.6525 58.1258C29.8352 57.6133 30.0128 57.3393 30.165 57.2987C30.3223 57.248 30.6167 57.3799 31.0632 57.6843C31.3423 57.8721 31.6518 58.1004 31.9968 58.3491C32.2303 58.5013 32.3977 58.5774 32.5144 58.552C32.6311 58.5267 32.7681 58.3998 32.9254 58.1461C32.9965 58.0243 33.1893 57.6285 33.5191 56.9689Z" fill="#5C4D4D"/>
</svg>

