<svg width="344" height="571" viewBox="0 0 344 571" fill="none" xmlns="http://www.w3.org/2000/svg">
<mask id="path-1-inside-1_324_740" fill="white">
<path fill-rule="evenodd" clip-rule="evenodd" d="M343.994 174C343.998 173.501 344 173.001 344 172.5C344 77.2309 266.993 0 172 0C77.007 0 0 77.2309 0 172.5C0 173.001 0.00212537 173.501 0.00636756 174H0V571H344V174H343.994Z"/>
</mask>
<path d="M343.994 174L342.994 173.992L342.985 175H343.994V174ZM0.00636756 174V175H1.0149L1.00633 173.992L0.00636756 174ZM0 174V173H-1V174H0ZM0 571H-1V572H0V571ZM344 571V572H345V571H344ZM344 174H345V173H344V174ZM343 172.5C343 172.998 342.998 173.495 342.994 173.992L344.994 174.008C344.998 173.506 345 173.003 345 172.5H343ZM172 1C266.438 1 343 77.7804 343 172.5H345C345 76.6813 267.548 -1 172 -1V1ZM1 172.5C1 77.7804 77.562 1 172 1V-1C76.452 -1 -1 76.6813 -1 172.5H1ZM1.00633 173.992C1.00211 173.495 1 172.998 1 172.5H-1C-1 173.003 -0.997863 173.506 -0.993596 174.008L1.00633 173.992ZM0 175H0.00636756V173H0V175ZM1 571V174H-1V571H1ZM344 570H0V572H344V570ZM343 174V571H345V174H343ZM343.994 175H344V173H343.994V175Z" fill="url(#paint0_linear_324_740)" mask="url(#path-1-inside-1_324_740)"/>
<defs>
<linearGradient id="paint0_linear_324_740" x1="165" y1="-27.5" x2="172" y2="571" gradientUnits="userSpaceOnUse">
<stop stop-color="#FFF3F3"/>
<stop offset="1" stop-opacity="0"/>
</linearGradient>
</defs>
</svg>
