<svg width="228" height="19" viewBox="0 0 228 19" fill="none" xmlns="http://www.w3.org/2000/svg">
<path d="M110.885 14.7354C110.607 15.0886 111.509 15.0886 111.599 15.2463C112.012 15.9601 110.847 17.4326 110.089 17.7031C109.194 18.0186 107.842 17.087 107.399 16.3357C105.265 12.6619 111.403 12.3163 113.56 12.3163C117.767 12.3163 122.282 12.4214 126.264 10.7836C128.082 10.0323 130.592 8.25171 130.554 5.9978C130.471 1.3848 123.875 4.47265 121.839 5.32162C117.444 7.17734 113.086 9.2885 108.391 10.2502C106.272 10.6859 103.312 11.2945 101.268 10.2952C98.6913 9.04057 98.8566 5.58458 101.892 5.1338C106.114 4.51022 110.043 7.53797 114.341 7.13226C116.482 6.93692 119.224 5.76489 120.396 3.78145C121.433 2.00838 119.871 0.385564 118.135 0.0625049C116.805 -0.192939 115.686 0.363026 114.687 1.212C113.905 1.87314 112.741 3.15787 113.65 4.23224C114.484 5.21644 115.671 4.2698 116.369 3.68378C117.316 2.89492 117.121 2.57937 116.144 3.39078C116.129 3.39829 114.228 1.97081 115.813 1.45242C116.775 1.13687 118.481 2.32393 118.834 3.24052C120.036 6.31335 113.928 5.71982 112.41 5.42681C108.654 4.69804 104.874 2.44414 101.141 4.49519C99.2397 5.5395 96.505 8.0188 97.9625 10.4455C100.089 13.9691 106.888 11.8279 109.856 10.9188C114.258 9.58151 118.345 7.42527 122.643 5.81748C124.491 5.12629 129.577 3.99933 128.781 7.92113C128.263 10.423 122.673 10.716 120.629 10.9339C116.655 11.3471 112.132 10.2577 108.488 12.3764C106.618 13.4657 104.198 15.8474 106.279 18.0111C108.173 19.9871 111.786 18.4168 113.034 16.3357C113.792 15.0735 113.169 13.4432 111.576 13.9616C110.847 14.2546 110.276 14.7354 109.856 15.4041C109.735 15.5769 110.712 14.9533 110.885 14.7354Z" fill="#695454"/>
<path d="M208.532 9.51372H134.589V8.55957L208.569 8.64973L227.585 8.96527L208.532 9.51372Z" fill="#695454"/>
<path d="M135.813 9.03281C135.813 9.37841 135.693 9.67141 135.453 9.91934C135.212 10.1598 134.927 10.28 134.589 10.28C134.251 10.28 133.958 10.1598 133.717 9.91934C133.484 9.67141 133.364 9.37841 133.364 9.03281C133.364 8.68721 133.484 8.3942 133.717 8.14627C133.958 7.90585 134.251 7.78564 134.589 7.78564C134.927 7.78564 135.212 7.90585 135.453 8.14627C135.693 8.3942 135.813 8.68721 135.813 9.03281Z" fill="#695454"/>
<path d="M19.053 9.51372H92.9963V8.55957L19.0155 8.64973L0 8.96527L19.053 9.51372Z" fill="#695454"/>
<path d="M94.2211 9.03281C94.2211 9.37841 94.1009 9.67141 93.8605 9.91934C93.6276 10.1598 93.3346 10.28 92.9965 10.28C92.6584 10.28 92.3729 10.1598 92.1325 9.91934C91.8921 9.67141 91.7719 9.37841 91.7719 9.03281C91.7719 8.68721 91.8921 8.3942 92.1325 8.14627C92.3729 7.90585 92.6584 7.78564 92.9965 7.78564C93.3346 7.78564 93.6276 7.90585 93.8605 8.14627C94.1009 8.3942 94.2211 8.68721 94.2211 9.03281Z" fill="#695454"/>
</svg>
